<svg
    viewBox="100 100 208 208"
    fill="none"
    xmlns="http://www.w3.org/2000/svg"
    class="fill-foreground h-24"
>
    <g class="hidden">
        <path d="M867.486 257.795V187.68H881.924V202.898L879.008 203.751C880.272 199.864 882.07 196.687 884.404 194.222C886.834 191.662 889.654 189.718 892.862 188.391C896.168 187.064 899.717 186.4 903.508 186.4C911.481 186.4 917.703 188.675 922.176 193.227C926.745 197.683 929.03 204.225 929.03 212.853V257.795H914.738V217.973C914.738 211.241 913.474 206.311 910.946 203.182C908.515 200.053 904.724 198.489 899.571 198.489C895.682 198.489 892.425 199.342 889.8 201.049C887.272 202.755 885.327 205.458 883.966 209.155C882.605 212.853 881.924 217.547 881.924 223.235V257.795H867.486Z"></path>
        <path d="M820.061 259.075C813.255 259.075 807.178 257.511 801.831 254.382C796.483 251.253 792.254 246.939 789.143 241.44C786.129 235.941 784.622 229.683 784.622 222.667C784.622 215.65 786.129 209.44 789.143 204.035C792.157 198.536 796.337 194.222 801.685 191.093C807.129 187.964 813.255 186.4 820.061 186.4C826.964 186.4 833.04 187.964 838.29 191.093C843.54 194.222 847.673 198.536 850.687 204.035C853.798 209.44 855.353 215.65 855.353 222.667C855.353 229.683 853.798 235.941 850.687 241.44C847.673 246.844 843.492 251.158 838.144 254.382C832.894 257.511 826.866 259.075 820.061 259.075ZM820.061 246.702C824.338 246.702 828.033 245.707 831.144 243.715C834.353 241.724 836.783 238.927 838.436 235.324C840.186 231.721 841.061 227.502 841.061 222.667C841.061 217.736 840.186 213.47 838.436 209.867C836.783 206.264 834.353 203.514 831.144 201.618C828.033 199.627 824.338 198.631 820.061 198.631C815.685 198.631 811.894 199.627 808.685 201.618C805.574 203.609 803.143 206.406 801.393 210.009C799.74 213.517 798.914 217.736 798.914 222.667C798.914 227.502 799.74 231.721 801.393 235.324C803.143 238.927 805.574 241.724 808.685 243.715C811.894 245.707 815.685 246.702 820.061 246.702Z"></path>
        <path d="M758.31 257.795V187.68H772.602V257.795H758.31ZM757.289 175.591V158.667H773.477V175.591H757.289Z"></path>
        <path d="M736.501 259.075C733.001 259.075 729.744 258.412 726.73 257.084C723.813 255.757 721.48 253.624 719.73 250.684C718.077 247.65 717.25 243.763 717.25 239.022V169.76L731.688 161.938V235.324C731.688 239.212 732.272 242.246 733.438 244.427C734.702 246.513 736.987 247.555 740.293 247.555C741.265 247.555 742.383 247.461 743.647 247.271C745.008 246.987 746.467 246.655 748.022 246.275V257.084C746.078 257.748 744.133 258.222 742.189 258.507C740.244 258.886 738.348 259.075 736.501 259.075ZM702.958 198.489V187.68H748.022V198.489H702.958Z"></path>
        <path d="M635.182 257.795V187.68H649.62V202.898L646.703 203.751C647.967 199.864 649.766 196.687 652.099 194.222C654.53 191.662 657.35 189.718 660.558 188.391C663.864 187.064 667.412 186.4 671.204 186.4C679.177 186.4 685.399 188.675 689.872 193.227C694.441 197.683 696.726 204.225 696.726 212.853V257.795H682.434V217.973C682.434 211.241 681.17 206.311 678.642 203.182C676.211 200.053 672.42 198.489 667.267 198.489C663.378 198.489 660.121 199.342 657.496 201.049C654.968 202.755 653.023 205.458 651.662 209.155C650.301 212.853 649.62 217.547 649.62 223.235V257.795H635.182Z"></path>
        <path d="M591.717 259.075C585.883 259.075 580.828 258.127 576.55 256.231C572.272 254.335 568.723 251.727 565.903 248.409C563.084 244.995 560.945 241.155 559.487 236.889C558.125 232.527 557.445 227.976 557.445 223.235C557.445 218.495 558.125 213.944 559.487 209.582C560.848 205.126 562.889 201.191 565.612 197.778C568.334 194.27 571.737 191.52 575.82 189.529C580.001 187.443 584.911 186.4 590.55 186.4C596.189 186.4 601.05 187.348 605.134 189.244C609.217 191.046 612.572 193.606 615.197 196.924C617.822 200.148 619.766 203.798 621.03 207.875C622.391 211.952 623.072 216.267 623.072 220.818C623.072 221.292 623.023 222.192 622.926 223.52C622.926 224.752 622.829 225.938 622.634 227.075H571.737C572.029 233.333 573.973 238.169 577.571 241.582C581.265 244.901 586.126 246.56 592.154 246.56C596.238 246.56 599.884 245.944 603.092 244.711C606.301 243.384 609.266 241.345 611.988 238.595L620.739 247.413C617.919 250.163 615.002 252.391 611.988 254.098C609.072 255.804 605.96 257.037 602.655 257.795C599.446 258.649 595.8 259.075 591.717 259.075ZM608.926 220.107C609.12 219.348 609.217 218.59 609.217 217.831C609.315 217.072 609.363 216.314 609.363 215.555C609.363 213.375 608.974 211.241 608.196 209.155C607.419 207.07 606.252 205.221 604.696 203.609C603.141 201.902 601.196 200.575 598.863 199.627C596.627 198.584 594.002 198.062 590.988 198.062C587.001 198.062 583.598 198.963 580.779 200.764C577.959 202.471 575.772 204.747 574.216 207.591C572.758 210.435 571.883 213.517 571.591 216.835H613.593L608.926 220.107Z"></path>
        <path d="M540.269 259.075C536.769 259.075 533.512 258.412 530.498 257.084C527.581 255.757 525.248 253.624 523.498 250.684C521.845 247.65 521.018 243.763 521.018 239.022V169.76L535.456 161.938V235.324C535.456 239.212 536.04 242.246 537.206 244.427C538.47 246.513 540.755 247.555 544.061 247.555C545.033 247.555 546.151 247.461 547.415 247.271C548.776 246.987 550.235 246.655 551.79 246.275V257.084C549.846 257.748 547.901 258.222 545.957 258.507C544.012 258.886 542.116 259.075 540.269 259.075ZM503.992 198.489V187.68H551.79V198.489H503.992Z"></path>
        <path d="M493.231 259.075C489.73 259.075 486.473 258.412 483.459 257.084C480.543 255.757 478.209 253.624 476.459 250.684C474.806 247.65 473.98 243.763 473.98 239.022V169.76L488.418 161.938V235.324C488.418 239.212 489.001 242.246 490.168 244.427C491.432 246.513 493.717 247.555 497.022 247.555C497.995 247.555 499.113 247.461 500.377 247.271C501.738 246.987 503.196 246.655 504.752 246.275V257.084C502.807 257.748 500.863 258.222 498.918 258.507C496.974 258.886 495.078 259.075 493.231 259.075ZM459.688 198.489V187.68H504.752V198.489H459.688Z"></path>
        <path d="M376.916 257.795L416.438 158.667H427.959L467.335 257.795H451.147L422.271 179.715L393.249 257.795H376.916ZM400.25 235.751L404.771 222.809H439.48L444.439 235.751H400.25Z"></path>
    </g>
    <path
        fill-rule="evenodd"
        clip-rule="evenodd"
        d="M142 102C119.909 102 102 119.909 102 142V266C102 288.091 119.909 306 142 306H266C288.091 306 306 288.091 306 266V142C306 119.909 288.091 102 266 102H142Z"
        fill="#F7F6FA"
    ></path>
    <path
        fill-rule="evenodd"
        clip-rule="evenodd"
        d="M142 102C119.909 102 102 119.909 102 142V266C102 288.091 119.909 306 142 306H266C288.091 306 306 288.091 306 266V142C306 119.909 288.091 102 266 102H142ZM160 212.222L214.469 140V196.559L248 196.559L193.531 268.781L193.531 212.222H160Z"
        fill="#292440"
    ></path>
    <path
        fill-rule="evenodd"
        clip-rule="evenodd"
        d="M142 102C119.909 102 102 119.909 102 142V266C102 288.091 119.909 306 142 306H266C288.091 306 306 288.091 306 266V142C306 119.909 288.091 102 266 102H142ZM160 212.222L214.469 140V196.559L248 196.559L193.531 268.781L193.531 212.222H160Z"
        fill="url(#paint0_radial_7640_11927)"
    ></path>
    <path
        fill-rule="evenodd"
        clip-rule="evenodd"
        d="M142 102C119.909 102 102 119.909 102 142V266C102 288.091 119.909 306 142 306H266C288.091 306 306 288.091 306 266V142C306 119.909 288.091 102 266 102H142ZM160 212.222L214.469 140V196.559L248 196.559L193.531 268.781L193.531 212.222H160Z"
        fill="url(#paint1_radial_7640_11927)"
    ></path>
    <path
        fill-rule="evenodd"
        clip-rule="evenodd"
        d="M142 102C119.909 102 102 119.909 102 142V266C102 288.091 119.909 306 142 306H266C288.091 306 306 288.091 306 266V142C306 119.909 288.091 102 266 102H142ZM160 212.222L214.469 140V196.559L248 196.559L193.531 268.781L193.531 212.222H160Z"
        fill="url(#paint2_radial_7640_11927)"
    ></path>
    <defs>
        <radialGradient
            id="paint0_radial_7640_11927"
            cx="0"
            cy="0"
            r="1"
            gradientUnits="userSpaceOnUse"
            gradientTransform="translate(204 306) rotate(-90) scale(126 151.737)"
        >
            <stop stop-color="#FF71FD" stop-opacity="0.48"></stop>
            <stop offset="1" stop-color="#FF71FD" stop-opacity="0"></stop>
        </radialGradient>
        <radialGradient
            id="paint1_radial_7640_11927"
            cx="0"
            cy="0"
            r="1"
            gradientUnits="userSpaceOnUse"
            gradientTransform="translate(306 306) rotate(-135) scale(239.002 287.621)"
        >
            <stop stop-color="#688BFF" stop-opacity="0.48"></stop>
            <stop offset="1" stop-color="#688BFF" stop-opacity="0"></stop>
        </radialGradient>
        <radialGradient
            id="paint2_radial_7640_11927"
            cx="0"
            cy="0"
            r="1"
            gradientUnits="userSpaceOnUse"
            gradientTransform="translate(102 306) rotate(-46.9946) scale(213.322 271.075)"
        >
            <stop stop-color="#FFC978" stop-opacity="0.48"></stop>
            <stop offset="1" stop-color="#FFC978" stop-opacity="0"></stop>
        </radialGradient>
    </defs>
</svg>
